<svg width="324" height="367" viewBox="0 0 324 367" fill="none" xmlns="http://www.w3.org/2000/svg">
<path d="M98.12 237.86L97.81 237.74C97.5862 237.655 97.3424 237.639 97.1104 237.695C96.8785 237.75 96.6692 237.874 96.51 238.05C90.95 244.13 86.6867 249.263 83.72 253.45C75.22 265.43 68.76 278.877 64.34 293.79C62.82 298.903 61.9933 302.733 61.86 305.28C61.7067 308.007 61.29 310.317 60.61 312.21C60.05 313.763 59.7433 315.303 59.69 316.83C59.5033 322.783 59.5433 328.763 59.81 334.77C60.06 340.18 61.31 345.39 61.73 350.68C61.8166 351.7 62.0333 352.65 62.38 353.53C62.7867 354.563 62.8933 355.7 62.7 356.94C62.6466 357.3 62.7467 357.61 63 357.87C63.5333 358.43 63.7766 359.087 63.73 359.84C63.646 361.187 64.1405 362.653 65.12 363.96C65.6 364.607 65.81 365.383 65.75 366.29C65.7033 366.877 65.5333 366.917 65.24 366.41C64.92 365.863 64.4467 365.62 63.82 365.68C63.32 365.727 63.1267 365.51 63.24 365.03C63.2667 364.923 63.2733 364.817 63.26 364.71C63.2333 364.43 63.0967 364.227 62.85 364.1L59.77 362.48C59.4567 362.313 59.3 362.053 59.3 361.7C59.3 361.547 59.2566 361.407 59.17 361.28C59.05 361.1 58.88 360.97 58.66 360.89C57.14 360.317 55.8866 359.57 54.9 358.65C53.02 356.91 50.97 355.55 49.06 353.9C35.6333 342.3 24.8 328.54 16.56 312.62C14.37 308.39 12.18 304.07 10.54 299.72C9.35332 296.567 8.15332 293.403 6.93999 290.23C6.61999 289.41 6.41332 288.55 6.31999 287.65C6.17999 286.35 5.56998 285.39 5.23998 284.11C4.72665 282.097 4.19665 280.087 3.64999 278.08C3.42332 277.247 3.30666 276.413 3.29999 275.58C3.28999 274.25 2.46999 273.69 2.38999 272.4C2.27665 270.62 2.21999 268.91 2.21999 267.27C2.21999 266.917 2.13999 266.58 1.97999 266.26C1.49999 265.327 1.26999 264.307 1.28999 263.2C1.29007 262.91 1.22872 262.624 1.10999 262.36C0.616653 261.26 0.356654 260.03 0.329988 258.67C0.169988 250.163 0.206655 242.137 0.439988 234.59C0.459988 234.09 0.659985 233.4 0.959985 232.99C1.16665 232.703 1.25666 232.38 1.22999 232.02C1.15666 231.08 1.31665 230.167 1.70999 229.28C2.80999 226.76 1.73998 224.18 2.98998 221.62C3.49998 220.57 3.18998 219.36 3.76998 218.21C4.22332 217.317 4.47332 216.307 4.51998 215.18C4.53332 214.833 4.63332 214.513 4.81999 214.22C5.67332 212.827 6.18999 211.337 6.36999 209.75C6.51999 208.39 7.27999 207.44 7.49999 206.04C7.55332 205.68 7.70665 205.37 7.95998 205.11C8.56665 204.477 9.01665 203.663 9.30998 202.67C9.73665 201.243 10.22 199.813 10.76 198.38C11.3067 196.927 11.92 195.58 12.6 194.34C13.81 192.14 14.8 189.39 16.37 187.45C17.27 186.35 17.22 185.23 17.93 184.06C22.73 176.16 27.8133 168.537 33.18 161.19C38.52 153.883 43.51 147.51 48.15 142.07C60.37 127.73 72.3 113.673 83.94 99.9C87.4333 95.7533 91.0966 91.1467 94.93 86.08C98.91 80.82 102.453 75.9333 105.56 71.42C106.76 69.6667 107.883 67.8333 108.93 65.92C109.643 64.6133 110.453 63.4533 111.36 62.44C112.1 61.6133 112.653 60.61 113.02 59.43C113.253 58.6833 113.577 57.97 113.99 57.29C117.063 52.1433 119.83 46.53 122.29 40.45C124.53 34.91 126.19 29.72 127.27 24.88C127.657 23.1467 128.113 21.4367 128.64 19.75C129.187 17.9767 129.46 16.15 129.46 14.27C129.453 13.9367 129.54 13.6233 129.72 13.33C130.127 12.67 130.327 11.95 130.32 11.17C130.293 8.08333 130.297 4.92333 130.33 1.69C130.35 -0.343333 130.95 -0.533333 132.13 1.12C133.16 2.56 134.29 2.01 135.62 2.65C140.047 4.78334 144.533 7.03 149.08 9.39C152.26 11.0367 155.457 12.9333 158.67 15.08C162.19 17.4333 165.293 19.5867 167.98 21.54C185.113 34.0133 199.98 49.0833 212.58 66.75C213.72 68.36 214.64 70 215.9 71.5C217.55 73.5 218.3 75.83 219.84 77.86C220.593 78.86 221.2 79.9533 221.66 81.14C222.04 82.12 222.85 82.61 223.33 83.5C225.917 88.4067 228.33 93.32 230.57 98.24C236.01 110.18 240.093 122.353 242.82 134.76C243.16 136.313 243.45 137.84 243.69 139.34C243.957 141.047 244.3 142.697 244.72 144.29C245.333 146.63 245.673 149.133 245.74 151.8C245.743 151.89 245.768 151.976 245.811 152.053C245.855 152.13 245.916 152.194 245.99 152.24C246.217 152.4 246.247 152.57 246.08 152.75C245.873 152.977 245.803 153.237 245.87 153.53C245.917 153.717 246.007 153.877 246.14 154.01C246.427 154.297 246.573 154.643 246.58 155.05L246.78 165.08C246.787 165.44 246.907 165.76 247.14 166.04C247.43 166.39 247.53 166.57 247.55 167.06C247.783 173.68 247.78 180.317 247.54 186.97C247.527 187.357 247.393 187.693 247.14 187.98C246.993 188.147 246.883 188.333 246.81 188.54C246.703 188.86 246.763 189.147 246.99 189.4C247.15 189.58 247.15 189.763 246.99 189.95C246.83 190.137 246.75 190.357 246.75 190.61C246.723 194.05 246.643 197.45 246.51 200.81C246.49 201.35 246.34 201.6 246.03 202.03C245.863 202.263 245.78 202.523 245.78 202.81C245.767 206.47 245.133 210.117 243.88 213.75C243.768 214.059 243.734 214.388 243.78 214.71C244.013 216.523 243.73 218.067 242.93 219.34C242.757 219.613 242.69 219.91 242.73 220.23C242.917 221.71 242.67 223.047 241.99 224.24C241.788 224.591 241.704 224.998 241.75 225.4C241.943 227.18 241.45 228.643 240.27 229.79C239.949 230.098 239.759 230.517 239.74 230.96L239.6 233.97C239.588 234.29 239.448 234.595 239.21 234.82C238.65 235.347 238.49 235.987 238.73 236.74C238.817 237.033 239.007 237.22 239.3 237.3C239.633 237.393 239.893 237.293 240.08 237C240.267 236.707 240.537 236.55 240.89 236.53C243.043 236.43 244.913 235.717 246.5 234.39C247.56 233.51 248.6 233.48 249.77 232.9C256.123 229.78 260.483 227.12 262.85 224.92C264.517 223.373 266.247 222.163 268.04 221.29C269.71 220.49 271.03 218.95 272.16 217.58C272.3 217.407 272.397 217.213 272.45 217C272.55 216.6 272.843 216.393 273.33 216.38C275.783 214.34 277.903 212.127 279.69 209.74C279.877 209.493 280.113 209.31 280.4 209.19C280.9 208.97 281.227 208.573 281.38 208C281.452 207.744 281.582 207.508 281.76 207.31C289.32 199.12 295.01 187.68 298.7 177.05C299.447 174.897 300.027 172.797 300.44 170.75C300.753 169.163 301.22 167.647 301.84 166.2C302.44 164.79 302.4 163.58 302.35 162.14C302.343 161.807 302.443 161.513 302.65 161.26C303.117 160.687 303.34 159.997 303.32 159.19C303.253 156.463 303.227 153.937 303.24 151.61C303.24 151.323 303.35 151.273 303.57 151.46C303.73 151.593 303.777 151.75 303.71 151.93C303.603 152.21 303.653 152.46 303.86 152.68L305.35 154.27C305.557 154.49 305.67 154.75 305.69 155.05C305.723 155.523 305.937 155.91 306.33 156.21C306.603 156.417 306.73 156.697 306.71 157.05L306.67 157.93C306.65 158.303 306.773 158.62 307.04 158.88C308.067 159.86 308.81 161.113 309.27 162.64C309.67 163.953 310.213 165.247 310.9 166.52C311.853 168.307 312.593 170.053 313.12 171.76C314.24 175.42 315.9 178.49 316.95 182.33C317.517 184.417 318.12 186.52 318.76 188.64C319.527 191.207 320.05 193.587 320.33 195.78C320.67 198.48 321.237 201.423 322.03 204.61C322.39 206.077 322.597 207.507 322.65 208.9C322.697 210.293 322.73 211.723 322.75 213.19C322.75 213.518 322.871 213.832 323.09 214.07C323.33 214.35 323.51 214.67 323.52 215.05C323.693 219.683 323.7 224.307 323.54 228.92C323.527 229.353 323.36 229.767 323.07 230.09C322.67 230.53 322.667 230.953 323.06 231.36C323.28 231.587 323.257 231.793 322.99 231.98C322.957 232.007 322.927 232.037 322.9 232.07C322.827 232.177 322.79 232.297 322.79 232.43C322.783 236.023 322.69 239.483 322.51 242.81C322.497 243.15 322.387 243.453 322.18 243.72C321.907 244.093 321.747 244.44 321.7 244.76C319.727 257.887 316.69 269.243 312.59 278.83C299.083 310.397 277.303 334.307 247.25 350.56C239.857 354.56 233.83 357.27 229.17 358.69C226.27 359.577 223.363 360.503 220.45 361.47C218.223 362.21 216.21 362.773 214.41 363.16C212.43 363.587 210.417 364.063 208.37 364.59C206.397 365.097 204.457 365.383 202.55 365.45C199.84 365.54 197.44 366.28 194.74 366.39C188.787 366.63 182.717 366.677 176.53 366.53C175.37 366.503 173.867 366.313 172.02 365.96C169.66 365.51 167.03 365.54 164.86 364.49C164.06 364.103 163.19 363.853 162.25 363.74C160.21 363.493 158.233 362.97 156.32 362.17C153.72 361.083 151.74 360.323 150.38 359.89C147.213 358.87 143.793 357.28 140.12 355.12C125.693 346.62 114.347 335.947 106.08 323.1C103.59 319.23 101.78 315.26 99.78 311.34C98.2867 308.427 96.9867 305.293 95.88 301.94C95.46 300.673 95.25 299.42 95.25 298.18C95.25 297.86 95.17 297.567 95.01 297.3C94.4366 296.373 94.17 295.313 94.21 294.12C94.2233 293.76 94.1533 293.413 94 293.08C92.8333 290.627 92.27 288.18 92.31 285.74C92.34 283.85 91.56 282.37 91.48 280.6C91.0466 270.24 91.4933 261.957 92.82 255.75C93.6533 251.843 94.5833 247.897 95.61 243.91C96.0967 242.01 96.99 240.2 98.29 238.48C98.3286 238.431 98.3551 238.373 98.3675 238.312C98.3799 238.251 98.3777 238.187 98.3612 238.127C98.3446 238.067 98.3142 238.011 98.2723 237.965C98.2304 237.919 98.1783 237.883 98.12 237.86Z" fill="#EB5858"/>
</svg>
