<svg width="30" height="34" viewBox="0 0 30 34" fill="none" xmlns="http://www.w3.org/2000/svg">
<g clip-path="url(#clip0_541_5)">
<path d="M9.08515 22.0361L9.05645 22.025C9.03573 22.0171 9.01315 22.0156 8.99167 22.0208C8.9702 22.0259 8.95082 22.0374 8.93608 22.0537C8.42127 22.617 8.02652 23.0925 7.75182 23.4804C6.96478 24.5903 6.36664 25.836 5.95738 27.2176C5.81664 27.6913 5.74009 28.0461 5.72775 28.2821C5.71355 28.5347 5.67497 28.7487 5.61201 28.9241C5.56015 29.068 5.53176 29.2106 5.52682 29.3521C5.50953 29.9036 5.51324 30.4576 5.53793 31.0141C5.56108 31.5153 5.67682 31.998 5.71571 32.4881C5.72373 32.5826 5.74379 32.6706 5.7759 32.7521C5.81355 32.8478 5.82342 32.9531 5.80552 33.068C5.80058 33.1014 5.80985 33.1301 5.8333 33.1542C5.88268 33.2061 5.90521 33.2669 5.9009 33.3367C5.89312 33.4615 5.9389 33.5973 6.0296 33.7184C6.07404 33.7783 6.09349 33.8502 6.08793 33.9342C6.08361 33.9886 6.06787 33.9923 6.04071 33.9454C6.01108 33.8947 5.96726 33.8722 5.90923 33.8777C5.86293 33.8821 5.84503 33.862 5.85553 33.8175C5.858 33.8076 5.85861 33.7978 5.85738 33.7879C5.8549 33.7619 5.84226 33.7431 5.81941 33.7313L5.53423 33.5813C5.50522 33.5658 5.49071 33.5417 5.49071 33.509C5.49071 33.4948 5.48669 33.4819 5.47867 33.4701C5.46756 33.4534 5.45182 33.4414 5.43145 33.434C5.29071 33.3809 5.17465 33.3117 5.0833 33.2264C4.90923 33.0652 4.71941 32.9392 4.54256 32.7864C3.29935 31.7117 2.29627 30.437 1.5333 28.9621C1.33052 28.5702 1.12775 28.17 0.975895 27.767C0.866018 27.4749 0.754907 27.1818 0.642561 26.8878C0.612932 26.8118 0.593795 26.7322 0.585154 26.6488C0.572191 26.5283 0.515708 26.4394 0.485153 26.3208C0.437622 26.1343 0.388548 25.9481 0.337931 25.7622C0.316944 25.685 0.306142 25.6078 0.305524 25.5306C0.304598 25.4074 0.228672 25.3555 0.221265 25.236C0.21077 25.0711 0.205524 24.9127 0.205524 24.7607C0.205524 24.728 0.198117 24.6968 0.183302 24.6672C0.138857 24.5807 0.117561 24.4862 0.119413 24.3837C0.11942 24.3568 0.11374 24.3303 0.102746 24.3058C0.057067 24.2039 0.032993 24.09 0.0305239 23.964C0.0157091 23.1759 0.0191042 22.4323 0.0407091 21.7331C0.0425609 21.6868 0.0610792 21.6229 0.088857 21.5849C0.107993 21.5583 0.116327 21.5284 0.113857 21.4951C0.107068 21.408 0.121882 21.3234 0.158302 21.2412C0.260154 21.0077 0.161079 20.7687 0.276819 20.5316C0.324042 20.4343 0.295338 20.3222 0.349042 20.2157C0.391018 20.1329 0.414166 20.0394 0.418486 19.9349C0.419721 19.9028 0.428981 19.8731 0.446265 19.846C0.525277 19.717 0.573117 19.5789 0.589783 19.4319C0.603672 19.3059 0.674043 19.2179 0.694413 19.0882C0.699351 19.0548 0.713548 19.0261 0.737005 19.002C0.793178 18.9434 0.834844 18.868 0.862005 18.776C0.901511 18.6438 0.946266 18.5113 0.996266 18.3785C1.04689 18.2439 1.10367 18.1191 1.16664 18.0043C1.27867 17.8004 1.37034 17.5457 1.51571 17.3659C1.59904 17.264 1.59441 17.1603 1.66015 17.0519C2.1046 16.32 2.57527 15.6138 3.07219 14.9331C3.56664 14.2562 4.02867 13.6658 4.4583 13.1618C5.58978 11.8333 6.69441 10.531 7.77219 9.25505C8.09565 8.87089 8.43484 8.44412 8.78978 7.97472C9.1583 7.48742 9.48636 7.0347 9.77404 6.61658C9.88515 6.45414 9.98914 6.28429 10.0861 6.10704C10.1521 5.98598 10.2271 5.87852 10.3111 5.78464C10.3796 5.70805 10.4308 5.6151 10.4648 5.50579C10.4864 5.43661 10.5164 5.37053 10.5546 5.30753C10.8391 4.83072 11.0953 4.31069 11.3231 3.74742C11.5305 3.23418 11.6842 2.75336 11.7842 2.30497C11.8201 2.14439 11.8623 1.98597 11.9111 1.82971C11.9617 1.66543 11.987 1.49619 11.987 1.32203C11.9864 1.29115 11.9944 1.26211 12.0111 1.23494C12.0488 1.1738 12.0673 1.10709 12.0666 1.03483C12.0641 0.748873 12.0645 0.456121 12.0676 0.156575C12.0694 -0.0317988 12.125 -0.0494009 12.2342 0.103769C12.3296 0.237175 12.4342 0.186221 12.5574 0.245513C12.9673 0.443152 13.3827 0.651289 13.8037 0.869927C14.0981 1.02248 14.3941 1.19819 14.6916 1.39707C15.0176 1.61508 15.3049 1.81458 15.5537 1.99554C17.1401 3.1511 18.5166 4.54724 19.6833 6.18393C19.7889 6.33309 19.874 6.48502 19.9907 6.62399C20.1435 6.80927 20.2129 7.02513 20.3555 7.2132C20.4252 7.30584 20.4815 7.40713 20.524 7.51707C20.5592 7.60786 20.6342 7.65325 20.6787 7.7357C20.9182 8.19028 21.1416 8.64546 21.349 9.10126C21.8527 10.2074 22.2308 11.3352 22.4833 12.4846C22.5148 12.6285 22.5416 12.7699 22.5639 12.9089C22.5886 13.067 22.6203 13.2199 22.6592 13.3675C22.716 13.5843 22.7475 13.8161 22.7537 14.0632C22.754 14.0716 22.7563 14.0795 22.7602 14.0867C22.7643 14.0938 22.77 14.0997 22.7768 14.104C22.7978 14.1188 22.8006 14.1346 22.7852 14.1512C22.766 14.1723 22.7595 14.1964 22.7657 14.2235C22.7701 14.2408 22.7784 14.2556 22.7907 14.268C22.8173 14.2946 22.8308 14.3266 22.8315 14.3643L22.85 15.2935C22.8506 15.3269 22.8617 15.3565 22.8833 15.3825C22.9102 15.4149 22.9194 15.4316 22.9213 15.477C22.9428 16.0903 22.9426 16.7051 22.9203 17.3215C22.9191 17.3573 22.9067 17.3885 22.8833 17.4151C22.8697 17.4305 22.8595 17.4478 22.8527 17.4669C22.8428 17.4966 22.8484 17.5232 22.8694 17.5466C22.8842 17.5633 22.8842 17.5802 22.8694 17.5976C22.8546 17.6149 22.8472 17.6353 22.8472 17.6587C22.8447 17.9774 22.8373 18.2924 22.825 18.6037C22.8231 18.6537 22.8092 18.6768 22.7805 18.7167C22.7651 18.7383 22.7574 18.7624 22.7574 18.7889C22.7562 19.128 22.6975 19.4659 22.5815 19.8025C22.5711 19.8311 22.5679 19.8616 22.5722 19.8914C22.5938 20.0594 22.5676 20.2024 22.4935 20.3203C22.4775 20.3456 22.4713 20.3731 22.475 20.4028C22.4923 20.5399 22.4694 20.6638 22.4065 20.7743C22.3877 20.8068 22.38 20.8445 22.3842 20.8818C22.4021 21.0467 22.3565 21.1822 22.2472 21.2885C22.2175 21.317 22.1999 21.3558 22.1981 21.3969L22.1852 21.6757C22.184 21.7054 22.1711 21.7336 22.149 21.7545C22.0972 21.8033 22.0824 21.8626 22.1046 21.9323C22.1127 21.9595 22.1302 21.9768 22.1574 21.9842C22.1882 21.9928 22.2123 21.9836 22.2296 21.9564C22.2469 21.9293 22.2719 21.9147 22.3046 21.9129C22.504 21.9036 22.6771 21.8376 22.824 21.7146C22.9222 21.6331 23.0185 21.6303 23.1268 21.5766C23.7151 21.2875 24.1188 21.0411 24.3379 20.8373C24.4923 20.694 24.6525 20.5819 24.8185 20.501C24.9731 20.4269 25.0953 20.2842 25.2 20.1573C25.2129 20.1413 25.2219 20.1233 25.2268 20.1036C25.2361 20.0665 25.2632 20.0473 25.3083 20.0461C25.5354 19.8571 25.7317 19.6521 25.8972 19.431C25.9145 19.4081 25.9364 19.3911 25.9629 19.38C26.0092 19.3596 26.0395 19.3228 26.0537 19.2698C26.0603 19.246 26.0724 19.2242 26.0889 19.2058C26.7889 18.4471 27.3157 17.3873 27.6574 16.4025C27.7265 16.203 27.7802 16.0085 27.8185 15.8188C27.8475 15.6718 27.8907 15.5313 27.9481 15.3973C28.0037 15.2667 28 15.1546 27.9953 15.0212C27.9947 14.9903 28.0039 14.9631 28.0231 14.9396C28.0664 14.8865 28.087 14.8226 28.0852 14.7479C28.079 14.4952 28.0765 14.2612 28.0777 14.0456C28.0777 14.019 28.0879 14.0144 28.1083 14.0317C28.1231 14.044 28.1275 14.0586 28.1213 14.0753C28.1114 14.1012 28.116 14.1244 28.1352 14.1448L28.2731 14.2921C28.2923 14.3124 28.3027 14.3365 28.3046 14.3643C28.3077 14.4081 28.3275 14.444 28.3639 14.4718C28.3891 14.491 28.4009 14.5169 28.399 14.5496L28.3953 14.6311C28.3935 14.6657 28.4049 14.6951 28.4296 14.7191C28.5247 14.8099 28.5935 14.926 28.6361 15.0675C28.6731 15.1891 28.7234 15.309 28.787 15.4269C28.8752 15.5925 28.9438 15.7542 28.9926 15.9124C29.0963 16.2515 29.25 16.5359 29.3472 16.8916C29.3997 17.085 29.4555 17.2798 29.5148 17.4762C29.5858 17.714 29.6342 17.9345 29.6602 18.1377C29.6916 18.3878 29.7441 18.6605 29.8176 18.9557C29.8509 19.0916 29.8701 19.2241 29.875 19.3531C29.8793 19.4822 29.8824 19.6147 29.8842 19.7506C29.8842 19.781 29.8954 19.8101 29.9157 19.8321C29.9379 19.858 29.9546 19.8877 29.9555 19.9229C29.9715 20.3521 29.9722 20.7805 29.9574 21.2079C29.9562 21.248 29.9407 21.2863 29.9139 21.3162C29.8768 21.357 29.8765 21.3962 29.9129 21.4339C29.9333 21.4549 29.9312 21.474 29.9064 21.4913C29.9034 21.4938 29.9006 21.4966 29.8981 21.4997C29.8914 21.5096 29.8879 21.5207 29.8879 21.533C29.8873 21.8659 29.8787 22.1864 29.862 22.4947C29.8608 22.5262 29.8506 22.5542 29.8314 22.579C29.8062 22.6135 29.7914 22.6457 29.787 22.6753C29.6043 23.8914 29.3231 24.9435 28.9435 25.8317C27.6928 28.7561 25.6762 30.9712 22.8935 32.477C22.209 32.8475 21.6509 33.0986 21.2194 33.2301C20.9509 33.3123 20.6817 33.3981 20.412 33.4877C20.2058 33.5563 20.0194 33.6084 19.8527 33.6443C19.6694 33.6838 19.483 33.7279 19.2935 33.7767C19.1108 33.8237 18.9312 33.8502 18.7546 33.8564C18.5037 33.8648 18.2815 33.9333 18.0315 33.9435C17.4802 33.9657 16.9182 33.9701 16.3453 33.9565C16.2379 33.954 16.0988 33.9364 15.9277 33.9037C15.7092 33.862 15.4657 33.8648 15.2648 33.7675C15.1907 33.7316 15.1102 33.7085 15.0231 33.698C14.8342 33.6751 14.6512 33.6267 14.474 33.5525C14.2333 33.4518 14.05 33.3814 13.924 33.3413C13.6308 33.2468 13.3141 33.0995 12.974 32.8994C11.6382 32.1119 10.5877 31.1232 9.82219 29.933C9.59164 29.5745 9.42404 29.2067 9.23886 28.8435C9.10059 28.5736 8.98022 28.2833 8.87775 27.9727C8.83886 27.8553 8.81941 27.7392 8.81941 27.6243C8.81941 27.5947 8.81201 27.5675 8.79719 27.5428C8.7441 27.4569 8.71941 27.3587 8.72312 27.2482C8.72435 27.2148 8.71787 27.1827 8.70367 27.1518C8.59565 26.9246 8.54349 26.6979 8.54719 26.4718C8.54997 26.2967 8.47775 26.1596 8.47034 25.9957C8.43021 25.0359 8.47157 24.2685 8.59441 23.6935C8.67157 23.3315 8.75768 22.9659 8.85275 22.5966C8.89781 22.4206 8.98052 22.2529 9.1009 22.0935C9.10447 22.089 9.10692 22.0836 9.10807 22.078C9.10922 22.0723 9.10902 22.0664 9.10749 22.0608C9.10595 22.0553 9.10314 22.0501 9.09926 22.0458C9.09538 22.0416 9.09055 22.0382 9.08515 22.0361Z" fill="#EB5858"/>
</g>
<defs>
<clipPath id="clip0_541_5">
<rect width="30" height="34" fill="white"/>
</clipPath>
</defs>
</svg>
